<?xml version="1.0" encoding="utf-8"?>
<!-- Generator: Adobe Illustrator 24.0.2, SVG Export Plug-In . SVG Version: 6.00 Build 0)  -->
<svg version="1.1" id="Capa_1" xmlns="http://www.w3.org/2000/svg" xmlns:xlink="http://www.w3.org/1999/xlink" x="0px" y="0px"
	 viewBox="0 0 512 512" style="enable-background:new 0 0 512 512;" xml:space="preserve">
<style type="text/css">
	.st0{fill:#D2001A;}
</style>
<path class="st0" d="M160,256c0-53.9,42.1-96,96-96c53,0,96,42.1,96,96c0,53-43,96-96,96C202.1,352,160,309,160,256z M512,256
	c0,141.4-114.6,256-256,256S0,397.4,0,256S114.6,0,256,0S512,114.6,512,256z M256,48C141.1,48,48,141.1,48,256s93.1,208,208,208
	s208-93.1,208-208S370.9,48,256,48z"/>
</svg>
